<svg width="3703" height="1430" xmlns="http://www.w3.org/2000/svg" xmlns:xlink="http://www.w3.org/1999/xlink" xml:space="preserve" overflow="hidden"><defs><clipPath id="clip0"><rect x="57" y="471" width="3703" height="1430"/></clipPath></defs><g clip-path="url(#clip0)" transform="translate(-57 -471)"><rect x="57.0001" y="471" width="3703" height="1411" fill="#FFFFFF"/><rect x="841.5" y="880.5" width="2860" height="251" stroke="#000000" stroke-width="6.875" stroke-miterlimit="8" fill="#E8E8E8"/><rect x="841.5" y="1182.5" width="2860" height="560" stroke="#000000" stroke-width="6.875" stroke-miterlimit="8" fill="#E8E8E8"/><text font-family="Times New Roman,Times New Roman_MSFontService,sans-serif" font-weight="400" font-size="73" transform="matrix(1 0 0 1 2024.42 1273)">Stru</text><text font-family="Times New Roman,Times New Roman_MSFontService,sans-serif" font-weight="400" font-size="73" transform="matrix(1 0 0 1 2147.02 1273)">ctural m</text><text font-family="Times New Roman,Times New Roman_MSFontService,sans-serif" font-weight="400" font-size="73" transform="matrix(1 0 0 1 2390.51 1273)">odel</text><rect x="893.5" y="1305.5" width="649" height="343" stroke="#000000" stroke-width="6.875" stroke-miterlimit="8" fill="#FFFFFF"/><text font-family="Times New Roman,Times New Roman_MSFontService,sans-serif" font-weight="400" font-size="73" transform="matrix(1 0 0 1 1094.97 1396)">Element</text><rect x="1948.5" y="1305.5" width="649" height="343" stroke="#000000" stroke-width="6.875" stroke-miterlimit="8" fill="#FFFFFF"/><text font-family="Times New Roman,Times New Roman_MSFontService,sans-serif" font-weight="400" font-size="73" transform="matrix(1 0 0 1 2149.84 1396)">Element</text><rect x="3003.5" y="1305.5" width="649" height="343" stroke="#000000" stroke-width="6.875" stroke-miterlimit="8" fill="#FFFFFF"/><text font-family="Times New Roman,Times New Roman_MSFontService,sans-serif" font-weight="400" font-size="73" transform="matrix(1 0 0 1 3204.7 1396)">Element</text><rect x="947.5" y="1421.5" width="541" height="91.0001" stroke="#000000" stroke-width="6.875" stroke-miterlimit="8" fill="#FFFFFF"/><text font-family="Times New Roman,Times New Roman_MSFontService,sans-serif" font-weight="400" font-size="73" transform="matrix(1 0 0 1 1080.94 1495)">Resource</text><rect x="947.5" y="1532.5" width="541" height="91.0001" stroke="#000000" stroke-width="6.875" stroke-miterlimit="8" fill="#FFFFFF"/><text font-family="Times New Roman,Times New Roman_MSFontService,sans-serif" font-weight="400" font-size="73" transform="matrix(1 0 0 1 1080.94 1606)">Resource</text><rect x="2002.5" y="1421.5" width="541" height="91.0001" stroke="#000000" stroke-width="6.875" stroke-miterlimit="8" fill="#FFFFFF"/><text font-family="Times New Roman,Times New Roman_MSFontService,sans-serif" font-weight="400" font-size="73" transform="matrix(1 0 0 1 2135.8 1495)">Resource</text><rect x="2002.5" y="1532.5" width="541" height="91.0001" stroke="#000000" stroke-width="6.875" stroke-miterlimit="8" fill="#FFFFFF"/><text font-family="Times New Roman,Times New Roman_MSFontService,sans-serif" font-weight="400" font-size="73" transform="matrix(1 0 0 1 2135.8 1606)">Resource</text><rect x="3057.5" y="1421.5" width="541" height="91.0001" stroke="#000000" stroke-width="6.875" stroke-miterlimit="8" fill="#FFFFFF"/><text font-family="Times New Roman,Times New Roman_MSFontService,sans-serif" font-weight="400" font-size="73" transform="matrix(1 0 0 1 3190.67 1495)">Resource</text><rect x="3057.5" y="1532.5" width="541" height="91.0001" stroke="#000000" stroke-width="6.875" stroke-miterlimit="8" fill="#FFFFFF"/><text font-family="Times New Roman,Times New Roman_MSFontService,sans-serif" font-weight="400" font-size="73" transform="matrix(1 0 0 1 3190.67 1606)">Resource</text><path d="M1542.5 1473.06 1924.84 1473.06 1924.84 1479.94 1542.5 1479.94ZM1920.26 1462.75 1947.76 1476.5 1920.26 1490.25Z"/><rect x="893.5" y="1003.5" width="649" height="91.0001" stroke="#000000" stroke-width="6.875" stroke-miterlimit="8" fill="#FFFFFF"/><text font-family="Times New Roman,Times New Roman_MSFontService,sans-serif" font-weight="400" font-size="73" transform="matrix(1 0 0 1 1152.27 1077)">Step</text><path d="M1221.94 1648.41 1221.94 1685.62 1218.5 1682.18 2797.48 1682.18 2794.04 1685.62 2794.04 1473.06 2980.51 1473.06 2980.51 1479.94 2797.48 1479.94 2800.92 1476.5 2800.92 1689.06 1215.06 1689.06 1215.06 1648.41ZM2975.93 1462.75 3003.43 1476.5 2975.93 1490.25Z"/><rect x="1587.5" y="1431.5" width="316" height="91.0001" stroke="#000000" stroke-width="6.875" stroke-miterlimit="8" fill="#FFFFFF"/><text font-family="Times New Roman,Times New Roman_MSFontService,sans-serif" font-weight="400" font-size="73" transform="matrix(1 0 0 1 1646.18 1505)">Comp.</text><rect x="1587.5" y="1639.5" width="316" height="91.0001" stroke="#000000" stroke-width="6.875" stroke-miterlimit="8" fill="#FFFFFF"/><text font-family="Times New Roman,Times New Roman_MSFontService,sans-serif" font-weight="400" font-size="73" transform="matrix(1 0 0 1 1646.18 1713)">Comp.</text><rect x="1948.5" y="1003.5" width="649" height="91.0001" stroke="#000000" stroke-width="6.875" stroke-miterlimit="8" fill="#FFFFFF"/><text font-family="Times New Roman,Times New Roman_MSFontService,sans-serif" font-weight="400" font-size="73" transform="matrix(1 0 0 1 2207.13 1077)">Step</text><rect x="3003.5" y="1003.5" width="649" height="91.0001" stroke="#000000" stroke-width="6.875" stroke-miterlimit="8" fill="#FFFFFF"/><text font-family="Times New Roman,Times New Roman_MSFontService,sans-serif" font-weight="400" font-size="73" transform="matrix(1 0 0 1 3262 1077)">Step</text><path d="M2272.5 1095.5 2274.72 1095.5 2274.72 1151.05 2771.94 1151.05" stroke="#000000" stroke-width="6.875" stroke-miterlimit="8" fill="none" fill-rule="evenodd"/><path d="M3327.5 1094.5 3327.5 1200.02 3327.5 1200.02 3327.5 1305.54" stroke="#000000" stroke-width="6.875" stroke-miterlimit="8" fill="none" fill-rule="evenodd"/><path d="M1542.5 1045.06 1924.84 1045.06 1924.84 1051.94 1542.5 1051.94ZM1920.26 1034.75 1947.76 1048.5 1920.26 1062.25Z"/><path d="M2597.5 1045.06 2979.84 1045.06 2979.84 1051.94 2597.5 1051.94ZM2975.26 1034.75 3002.76 1048.5 2975.26 1062.25Z"/><path d="M1218.5 1094.5 1218.5 1305.54" stroke="#000000" stroke-width="6.875" stroke-miterlimit="8" fill="none" fill-rule="evenodd"/><rect x="841.5" y="490.5" width="2860" height="337" stroke="#000000" stroke-width="6.875" stroke-miterlimit="8" fill="#E8E8E8"/><text font-family="Times New Roman,Times New Roman_MSFontService,sans-serif" font-weight="400" font-size="73" transform="matrix(1 0 0 1 2158.48 582)">Control</text><rect x="870.5" y="607.5" width="695" height="91.0001" stroke="#000000" stroke-width="6.875" stroke-miterlimit="8" fill="#FFFFFF"/><text font-family="Times New Roman,Times New Roman_MSFontService,sans-serif" font-weight="400" font-size="73" transform="matrix(1 0 0 1 1018.49 682)">Process order</text><rect x="1398.5" y="718.5" width="694" height="91.0001" stroke="#000000" stroke-width="6.875" stroke-miterlimit="8" fill="#FFFFFF"/><text font-family="Times New Roman,Times New Roman_MSFontService,sans-serif" font-weight="400" font-size="73" transform="matrix(1 0 0 1 1516.57 793)">Transport order</text><path d="M1221.94 698.5 1221.94 705.375 1215.06 705.375 1215.06 698.5ZM1221.94 712.25 1221.94 719.125 1215.06 719.125 1215.06 712.25ZM1221.94 726 1221.94 732.875 1215.06 732.875 1215.06 726ZM1221.94 739.75 1221.94 746.625 1215.06 746.625 1215.06 739.75ZM1221.94 753.5 1221.94 760.375 1215.06 760.375 1215.06 753.5ZM1221.94 767.25 1221.94 774.125 1215.06 774.125 1215.06 767.25ZM1221.94 781 1221.94 787.875 1215.06 787.875 1215.06 781ZM1221.94 794.75 1221.94 801.625 1215.06 801.625 1215.06 794.75ZM1221.94 808.5 1221.94 815.375 1215.06 815.375 1215.06 808.5ZM1221.94 822.25 1221.94 829.125 1215.06 829.125 1215.06 822.25ZM1221.94 836 1221.94 842.875 1215.06 842.875 1215.06 836ZM1221.94 849.75 1221.94 856.625 1215.06 856.625 1215.06 849.75ZM1221.94 863.5 1221.94 870.375 1215.06 870.375 1215.06 863.5ZM1221.94 877.25 1221.94 884.125 1215.06 884.125 1215.06 877.25ZM1221.94 891 1221.94 897.875 1215.06 897.875 1215.06 891ZM1221.94 904.75 1221.94 911.625 1215.06 911.625 1215.06 904.75ZM1221.94 918.5 1221.94 925.375 1215.06 925.375 1215.06 918.5ZM1221.94 932.25 1221.94 939.125 1215.06 939.125 1215.06 932.25ZM1221.94 946 1221.94 952.875 1215.06 952.875 1215.06 946ZM1221.94 959.75 1221.94 966.625 1215.06 966.625 1215.06 959.75ZM1221.94 973.5 1221.94 979.925 1215.06 979.925 1215.06 973.5ZM1232.25 975.342 1218.5 1002.84 1204.75 975.342Z"/><path d="M1748.94 809.5 1748.94 816.375 1742.06 816.375 1742.06 809.5ZM1748.94 823.25 1748.94 830.125 1742.06 830.125 1742.06 823.25ZM1748.94 837 1748.94 843.875 1742.06 843.875 1742.06 837ZM1748.94 850.75 1748.94 857.625 1742.06 857.625 1742.06 850.75ZM1748.94 864.5 1748.94 871.375 1742.06 871.375 1742.06 864.5ZM1748.94 878.25 1748.94 885.125 1742.06 885.125 1742.06 878.25ZM1748.94 892 1748.94 898.875 1742.06 898.875 1742.06 892ZM1748.94 905.75 1748.94 912.625 1742.06 912.625 1742.06 905.75ZM1748.94 919.5 1748.94 926.375 1742.06 926.375 1742.06 919.5ZM1748.94 933.25 1748.94 940.125 1742.06 940.125 1742.06 933.25ZM1748.94 947 1748.94 953.875 1742.06 953.875 1742.06 947ZM1748.94 960.75 1748.94 967.625 1742.06 967.625 1742.06 960.75ZM1748.94 974.5 1748.94 981.375 1742.06 981.375 1742.06 974.5ZM1748.94 988.25 1748.94 995.125 1742.06 995.125 1742.06 988.25ZM1748.94 1002 1748.94 1008.88 1742.06 1008.88 1742.06 1002ZM1748.94 1015.75 1748.94 1022.63 1742.06 1022.63 1742.06 1015.75ZM1759.25 1020.89 1745.5 1048.39 1731.75 1020.89Z"/><rect x="1925.5" y="607.5" width="695" height="91.0001" stroke="#000000" stroke-width="6.875" stroke-miterlimit="8" fill="#FFFFFF"/><text font-family="Times New Roman,Times New Roman_MSFontService,sans-serif" font-weight="400" font-size="73" transform="matrix(1 0 0 1 2073.35 682)">Process order</text><rect x="2453.5" y="718.5" width="694" height="91.0001" stroke="#000000" stroke-width="6.875" stroke-miterlimit="8" fill="#FFFFFF"/><text font-family="Times New Roman,Times New Roman_MSFontService,sans-serif" font-weight="400" font-size="73" transform="matrix(1 0 0 1 2571.43 793)">Transport order</text><rect x="2980.5" y="607.5" width="695" height="91.0001" stroke="#000000" stroke-width="6.875" stroke-miterlimit="8" fill="#FFFFFF"/><text font-family="Times New Roman,Times New Roman_MSFontService,sans-serif" font-weight="400" font-size="73" transform="matrix(1 0 0 1 3128.22 682)">Process order</text><path d="M3.4375-4.07623e-06 3.43751 6.875-3.43749 6.875-3.4375 4.07623e-06ZM3.43752 13.75 3.43752 20.625-3.43748 20.625-3.43748 13.75ZM3.43753 27.5 3.43754 34.375-3.43746 34.375-3.43747 27.5ZM3.43755 41.25 3.43756 48.125-3.43744 48.125-3.43745 41.25ZM3.43757 55 3.43757 61.875-3.43743 61.875-3.43743 55ZM3.43758 68.75 3.43759 75.625-3.43741 75.625-3.43742 68.75ZM3.4376 82.5 3.43761 89.375-3.43739 89.375-3.4374 82.5ZM3.43761 96.25 3.43762 103.125-3.43738 103.125-3.43739 96.25ZM3.43763 110 3.43764 116.875-3.43736 116.875-3.43737 110ZM3.43765 123.75 3.43765 130.625-3.43735 130.625-3.43735 123.75ZM3.43766 137.5 3.43767 144.375-3.43733 144.375-3.43734 137.5ZM3.43768 151.25 3.43769 158.125-3.43731 158.125-3.43732 151.25ZM3.4377 165 3.4377 171.875-3.4373 171.875-3.4373 165ZM3.43771 178.75 3.43772 185.625-3.43728 185.625-3.43729 178.75ZM3.43773 192.5 3.43774 199.375-3.43726 199.375-3.43727 192.5ZM3.43774 206.25 3.43775 213.125-3.43725 213.125-3.43726 206.25ZM3.43776 220 3.43777 226.875-3.43723 226.875-3.43724 220ZM3.43778 233.75 3.43779 240.625-3.43721 240.625-3.43722 233.75ZM3.43779 247.5 3.4378 254.375-3.4372 254.375-3.43721 247.5ZM3.43781 261.25 3.43782 268.125-3.43718 268.125-3.43719 261.25ZM3.43783 275 3.43783 281.425-3.43717 281.425-3.43717 275ZM13.7503 276.842 0.000360892 304.342-13.7497 276.842Z" transform="matrix(-1 0 0 1 2272.5 698.5)"/><path d="M2803.94 809.489 2803.96 816.364 2797.08 816.386 2797.06 809.511ZM2803.98 823.239 2804 830.114 2797.13 830.136 2797.11 823.261ZM2804.02 836.989 2804.05 843.864 2797.17 843.886 2797.15 837.011ZM2804.07 850.739 2804.09 857.614 2797.21 857.636 2797.19 850.761ZM2804.11 864.489 2804.13 871.364 2797.26 871.385 2797.23 864.511ZM2804.15 878.239 2804.17 885.114 2797.3 885.135 2797.28 878.26ZM2804.2 891.989 2804.22 898.864 2797.34 898.885 2797.32 892.01ZM2804.24 905.739 2804.26 912.614 2797.39 912.635 2797.36 905.76ZM2804.28 919.489 2804.3 926.364 2797.43 926.385 2797.41 919.51ZM2804.32 933.239 2804.35 940.114 2797.47 940.135 2797.45 933.26ZM2804.37 946.989 2804.39 953.864 2797.51 953.885 2797.49 947.01ZM2804.41 960.739 2804.43 967.614 2797.56 967.635 2797.54 960.76ZM2804.45 974.489 2804.48 981.363 2797.6 981.385 2797.58 974.51ZM2804.5 988.238 2804.52 995.113 2797.64 995.135 2797.62 988.26ZM2804.54 1001.99 2804.56 1008.86 2797.69 1008.88 2797.67 1002.01ZM2804.58 1015.74 2804.6 1022.61 2797.73 1022.63 2797.71 1015.76ZM2814.91 1020.85 2801.25 1048.39 2787.41 1020.94Z"/><path d="M3330.94 698.5 3330.94 705.375 3324.06 705.375 3324.06 698.5ZM3330.94 712.25 3330.94 719.125 3324.06 719.125 3324.06 712.25ZM3330.94 726 3330.94 732.875 3324.06 732.875 3324.06 726ZM3330.94 739.75 3330.94 746.625 3324.06 746.625 3324.06 739.75ZM3330.94 753.5 3330.94 760.375 3324.06 760.375 3324.06 753.5ZM3330.94 767.25 3330.94 774.125 3324.06 774.125 3324.06 767.25ZM3330.94 781 3330.94 787.875 3324.06 787.875 3324.06 781ZM3330.94 794.75 3330.94 801.625 3324.06 801.625 3324.06 794.75ZM3330.94 808.5 3330.94 815.375 3324.06 815.375 3324.06 808.5ZM3330.94 822.25 3330.94 829.125 3324.06 829.125 3324.06 822.25ZM3330.94 836 3330.94 842.875 3324.06 842.875 3324.06 836ZM3330.94 849.75 3330.94 856.625 3324.06 856.625 3324.06 849.75ZM3330.94 863.5 3330.94 870.375 3324.06 870.375 3324.06 863.5ZM3330.94 877.25 3330.94 884.125 3324.06 884.125 3324.06 877.25ZM3330.94 891 3330.94 897.875 3324.06 897.875 3324.06 891ZM3330.94 904.75 3330.94 911.625 3324.06 911.625 3324.06 904.75ZM3330.94 918.5 3330.94 925.375 3324.06 925.375 3324.06 918.5ZM3330.94 932.25 3330.94 939.125 3324.06 939.125 3324.06 932.25ZM3330.94 946 3330.94 952.875 3324.06 952.875 3324.06 946ZM3330.94 959.75 3330.94 966.625 3324.06 966.625 3324.06 959.75ZM3330.94 973.5 3330.94 979.925 3324.06 979.925 3324.06 973.5ZM3341.25 975.342 3327.5 1002.84 3313.75 975.342Z"/><rect x="116.5" y="880.5" width="650" height="862" stroke="#000000" stroke-width="6.875" stroke-miterlimit="8" fill="#E8E8E8"/><text font-family="Times New Roman,Times New Roman_MSFontService,sans-serif" font-weight="400" font-size="73" transform="matrix(1 0 0 1 225.482 972)">Product model</text><rect x="164.5" y="1003.5" width="554" height="91.0001" stroke="#000000" stroke-width="6.875" stroke-miterlimit="8" fill="#FFFFFF"/><text font-family="Times New Roman,Times New Roman_MSFontService,sans-serif" font-weight="400" font-size="73" transform="matrix(1 0 0 1 269.597 1077)">Component</text><rect x="164.5" y="1356.5" width="554" height="91.0001" stroke="#000000" stroke-width="6.875" stroke-miterlimit="8" fill="#FFFFFF"/><text font-family="Times New Roman,Times New Roman_MSFontService,sans-serif" font-weight="400" font-size="73" transform="matrix(1 0 0 1 269.597 1430)">Component</text><rect x="164.5" y="1179.5" width="554" height="91.0001" stroke="#000000" stroke-width="6.875" stroke-miterlimit="8" fill="#FFFFFF"/><text font-family="Times New Roman,Times New Roman_MSFontService,sans-serif" font-weight="400" font-size="73" transform="matrix(1 0 0 1 269.597 1253)">Component</text><rect x="164.5" y="1532.5" width="554" height="91.0001" stroke="#000000" stroke-width="6.875" stroke-miterlimit="8" fill="#FFFFFF"/><text font-family="Times New Roman,Times New Roman_MSFontService,sans-serif" font-weight="400" font-size="73" transform="matrix(1 0 0 1 269.597 1606)">Component</text><rect x="116.5" y="490.5" width="650" height="337" stroke="#000000" stroke-width="6.875" stroke-miterlimit="8" fill="#E8E8E8"/><text font-family="Times New Roman,Times New Roman_MSFontService,sans-serif" font-weight="400" font-size="73" transform="matrix(1 0 0 1 182.513 582)">Product spectrum</text><rect x="164.5" y="607.5" width="554" height="91.0001" stroke="#000000" stroke-width="6.875" stroke-miterlimit="8" fill="#FFFFFF"/><text font-family="Times New Roman,Times New Roman_MSFontService,sans-serif" font-weight="400" font-size="73" transform="matrix(1 0 0 1 215.17 682)">Product variant</text><rect x="164.5" y="718.5" width="554" height="91.0001" stroke="#000000" stroke-width="6.875" stroke-miterlimit="8" fill="#FFFFFF"/><text font-family="Times New Roman,Times New Roman_MSFontService,sans-serif" font-weight="400" font-size="73" transform="matrix(1 0 0 1 215.17 793)">Product variant</text><path d="M169.083 1581.43 83.146 1581.43 83.146 1045.06 164.5 1045.06 164.5 1051.94 86.5835 1051.94 90.021 1048.5 90.021 1578 86.5835 1574.56 169.083 1574.56ZM169.083 1564.25 182.833 1578 169.083 1591.75 155.333 1578ZM164.5 1034.75 178.25 1048.5 164.5 1062.25 150.75 1048.5Z"/><path d="M444.937 1094.5 444.938 1180.1 438.063 1180.1 438.062 1094.5ZM427.75 1094.5 441.5 1080.75 455.25 1094.5 441.5 1108.25ZM455.25 1180.1 441.5 1193.85 427.75 1180.1 441.5 1166.35Z"/><path d="M444.937 1447.5 444.938 1533.1 438.063 1533.1 438.062 1447.5ZM427.75 1447.5 441.5 1433.75 455.25 1447.5 441.5 1461.25ZM455.25 1533.1 441.5 1546.85 427.75 1533.1 441.5 1519.35Z"/><path d="M444.937 1270.5 444.938 1356.1 438.063 1356.1 438.062 1270.5ZM427.75 1270.5 441.5 1256.75 455.25 1270.5 441.5 1284.25ZM455.25 1356.1 441.5 1369.85 427.75 1356.1 441.5 1342.35Z"/><path d="M764.5 1459.06 871.872 1459.06 871.872 1465.94 764.5 1465.94ZM867.289 1448.75 894.789 1462.5 867.289 1476.25Z"/><path d="M0 0 76.6258 0.000360892" stroke="#000000" stroke-width="6.875" stroke-miterlimit="8" fill="none" fill-rule="evenodd" transform="matrix(-1 0 0 1 841.126 1006.5)"/><path d="M1745.5 1013.5 1745.5 1431.79" stroke="#000000" stroke-width="6.875" stroke-miterlimit="8" fill="none" fill-rule="evenodd"/><path d="M0 0 0.74813 380.148" stroke="#000000" stroke-width="6.875" stroke-miterlimit="8" fill="none" fill-rule="evenodd" transform="matrix(-1 0 0 1 2801.25 1051.5)"/><path d="M2597.5 1473.06 2979.84 1473.06 2979.84 1479.94 2597.5 1479.94ZM2975.26 1462.75 3002.76 1476.5 2975.26 1490.25Z"/><rect x="2642.5" y="1431.5" width="316" height="91.0001" stroke="#000000" stroke-width="6.875" stroke-miterlimit="8" fill="#FFFFFF"/><text font-family="Times New Roman,Times New Roman_MSFontService,sans-serif" font-weight="400" font-size="73" transform="matrix(1 0 0 1 2701.05 1505)">Comp.</text><path d="M444.937 827.5 444.937 834.375 438.062 834.375 438.062 827.5ZM444.937 841.25 444.938 848.125 438.063 848.125 438.062 841.25ZM444.938 855 444.938 857.652 438.063 857.652 438.063 855ZM455.25 853.069 441.5 880.569 427.75 853.069Z"/><path d="M2771.89 1151.17C2782.56 1143.74 2793.24 1136.32 2801.91 1136.49 2810.58 1136.67 2816.94 1147.96 2823.89 1152.21" stroke="#000000" stroke-width="6.875" stroke-miterlimit="8" fill="none" fill-rule="evenodd"/><path d="M2820.5 1151.5 3327.19 1151.5 3327.19 1277.96" stroke="#000000" stroke-width="6.875" stroke-miterlimit="8" fill="none" fill-rule="evenodd"/><rect x="1992" y="886" width="522" height="64.0003" fill="#E8E8E8"/><text font-family="Times New Roman,Times New Roman_MSFontService,sans-serif" font-weight="400" font-size="73" transform="matrix(1 0 0 1 2039.39 945)">Process model</text><path d="M191.5 1819.06 198.375 1819.06 198.375 1825.94 191.5 1825.94ZM205.25 1819.06 212.125 1819.06 212.125 1825.94 205.25 1825.94ZM219 1819.06 225.875 1819.06 225.875 1825.94 219 1825.94ZM232.75 1819.06 239.625 1819.06 239.625 1825.94 232.75 1825.94ZM246.5 1819.06 253.375 1819.06 253.375 1825.94 246.5 1825.94ZM260.25 1819.06 267.125 1819.06 267.125 1825.94 260.25 1825.94ZM267.937 1808.75 295.437 1822.5 267.937 1836.25Z"/><text font-family="Times New Roman,Times New Roman_MSFontService,sans-serif" font-weight="400" font-size="64" transform="matrix(1 0 0 1 321.192 1847)">Triggers</text><path d="M691.5 1819.06 772.521 1819.06 772.52 1825.94 691.5 1825.94ZM767.937 1808.75 795.437 1822.5 767.937 1836.25Z"/><text font-family="Times New Roman,Times New Roman_MSFontService,sans-serif" font-weight="400" font-size="64" transform="matrix(1 0 0 1 815.44 1847)">Moves to</text><path d="M0 0 103.937 0.000360892" stroke="#000000" stroke-width="6.875" stroke-miterlimit="8" fill="none" fill-rule="evenodd" transform="matrix(1 0 0 -1 1212.5 1822.5)"/><text font-family="Times New Roman,Times New Roman_MSFontService,sans-serif" font-weight="400" font-size="64" transform="matrix(1 0 0 1 1345.43 1847)">Is assigned to</text><path d="M1852.5 1819.06 1956.44 1819.06 1956.44 1825.94 1852.5 1825.94ZM1852.5 1836.25 1838.75 1822.5 1852.5 1808.75 1866.25 1822.5ZM1956.44 1808.75 1970.19 1822.5 1956.44 1836.25 1942.69 1822.5Z"/><text font-family="Times New Roman,Times New Roman_MSFontService,sans-serif" font-weight="400" font-size="64" transform="matrix(1 0 0 1 1992.07 1847)">Is connected to</text><rect x="3102.5" y="1781.5" width="104" height="81.9998" stroke="#000000" stroke-width="6.875" stroke-miterlimit="8" fill="#FFFFFF"/><text font-family="Times New Roman,Times New Roman_MSFontService,sans-serif" font-weight="400" font-size="64" transform="matrix(1 0 0 1 3234.48 1847)">Model element</text><rect x="2538.5" y="1781.5" width="103" height="81.9998" stroke="#000000" stroke-width="6.875" stroke-miterlimit="8" fill="#D9D9D9"/><text font-family="Times New Roman,Times New Roman_MSFontService,sans-serif" font-weight="400" font-size="64" transform="matrix(1 0 0 1 2687.18 1847)">Submodel</text></g></svg>